<mxfile host="Electron" agent="Mozilla/5.0 (Windows NT 10.0; Win64; x64) AppleWebKit/537.36 (KHTML, like Gecko) draw.io/24.7.17 Chrome/128.0.6613.36 Electron/32.0.1 Safari/537.36" version="24.7.17">
  <diagram name="Page-1" id="T9054BuAZ0CgF5ovmWpN">
    <mxGraphModel dx="1434" dy="836" grid="1" gridSize="10" guides="1" tooltips="1" connect="1" arrows="1" fold="1" page="0" pageScale="1" pageWidth="827" pageHeight="1169" math="0" shadow="0">
      <root>
        <mxCell id="0" />
        <mxCell id="1" parent="0" />
        <mxCell id="UnbnQZLA7p6qEm0kbXrQ-112" value="PyQt - Python" style="rounded=1;whiteSpace=wrap;html=1;sketch=1;hachureGap=4;jiggle=2;curveFitting=1;fontFamily=Architects Daughter;fontSource=https%3A%2F%2Ffonts.googleapis.com%2Fcss%3Ffamily%3DArchitects%2BDaughter;verticalAlign=top;textShadow=0;fontSize=30;fontStyle=1;fillColor=#fae264;strokeColor=#B8A649;sketchStyle=comic;strokeWidth=2;fontColor=#635A28;arcSize=5;" vertex="1" parent="1">
          <mxGeometry x="80" y="290" width="630" height="530" as="geometry" />
        </mxCell>
        <mxCell id="UnbnQZLA7p6qEm0kbXrQ-111" value="Qt - C++" style="rounded=1;whiteSpace=wrap;html=1;sketch=1;hachureGap=4;jiggle=2;curveFitting=1;fontFamily=Architects Daughter;fontSource=https%3A%2F%2Ffonts.googleapis.com%2Fcss%3Ffamily%3DArchitects%2BDaughter;fillColor=#d5e8d4;strokeColor=#82b366;sketchStyle=comic;fontSize=30;verticalAlign=top;fontStyle=1;fontColor=#006633;strokeWidth=2;arcSize=5;" vertex="1" parent="1">
          <mxGeometry x="100" y="350" width="590" height="450" as="geometry" />
        </mxCell>
        <mxCell id="UnbnQZLA7p6qEm0kbXrQ-110" value="" style="group;fontStyle=1" vertex="1" connectable="0" parent="1">
          <mxGeometry x="120" y="400" width="596" height="405" as="geometry" />
        </mxCell>
        <mxCell id="UnbnQZLA7p6qEm0kbXrQ-2" value="Window Title" style="strokeWidth=1;shadow=0;dashed=0;align=center;html=1;shape=mxgraph.mockup.containers.window;align=left;verticalAlign=top;spacingLeft=8;strokeColor2=#008cff;strokeColor3=#c4c4c4;fontColor=#666666;mainText=;fontSize=17;labelBackgroundColor=none;whiteSpace=wrap;sketch=1;hachureGap=4;jiggle=2;curveFitting=1;fontFamily=Architects Daughter;fontSource=https%3A%2F%2Ffonts.googleapis.com%2Fcss%3Ffamily%3DArchitects%2BDaughter;" vertex="1" parent="UnbnQZLA7p6qEm0kbXrQ-110">
          <mxGeometry width="550" height="380" as="geometry" />
        </mxCell>
        <mxCell id="UnbnQZLA7p6qEm0kbXrQ-13" value="Save" style="strokeWidth=1;shadow=0;dashed=0;align=center;html=1;shape=mxgraph.mockup.buttons.button;strokeColor=#666666;fontColor=#666666;mainText=;buttonStyle=round;fontSize=17;fontStyle=1;fillColor=#008cff;whiteSpace=wrap;sketch=1;hachureGap=4;jiggle=2;curveFitting=1;fontFamily=Architects Daughter;fontSource=https%3A%2F%2Ffonts.googleapis.com%2Fcss%3Ffamily%3DArchitects%2BDaughter;" vertex="1" parent="UnbnQZLA7p6qEm0kbXrQ-110">
          <mxGeometry x="371" y="320" width="80" height="30" as="geometry" />
        </mxCell>
        <mxCell id="UnbnQZLA7p6qEm0kbXrQ-17" value="Cancel" style="strokeWidth=1;shadow=0;dashed=0;align=center;html=1;shape=mxgraph.mockup.buttons.button;strokeColor=#666666;fontColor=#666666;mainText=;buttonStyle=round;fontSize=17;fontStyle=1;fillColor=#008cff;whiteSpace=wrap;sketch=1;hachureGap=4;jiggle=2;curveFitting=1;fontFamily=Architects Daughter;fontSource=https%3A%2F%2Ffonts.googleapis.com%2Fcss%3Ffamily%3DArchitects%2BDaughter;" vertex="1" parent="UnbnQZLA7p6qEm0kbXrQ-110">
          <mxGeometry x="461" y="320" width="80" height="30" as="geometry" />
        </mxCell>
        <mxCell id="UnbnQZLA7p6qEm0kbXrQ-19" value="Details" style="text;html=1;align=center;verticalAlign=middle;whiteSpace=wrap;rounded=0;fontFamily=Architects Daughter;fontSource=https%3A%2F%2Ffonts.googleapis.com%2Fcss%3Ffamily%3DArchitects%2BDaughter;fontSize=30;fontColor=#666666;" vertex="1" parent="UnbnQZLA7p6qEm0kbXrQ-110">
          <mxGeometry x="11" y="40" width="530" height="30" as="geometry" />
        </mxCell>
        <mxCell id="UnbnQZLA7p6qEm0kbXrQ-20" value="" style="verticalLabelPosition=bottom;shadow=0;dashed=0;align=center;html=1;verticalAlign=top;strokeWidth=1;shape=mxgraph.mockup.containers.userMale;strokeColor=#666666;strokeColor2=#008cff;sketch=1;hachureGap=4;jiggle=2;curveFitting=1;fontFamily=Architects Daughter;fontSource=https%3A%2F%2Ffonts.googleapis.com%2Fcss%3Ffamily%3DArchitects%2BDaughter;" vertex="1" parent="UnbnQZLA7p6qEm0kbXrQ-110">
          <mxGeometry x="371" y="80" width="160" height="160" as="geometry" />
        </mxCell>
        <mxCell id="UnbnQZLA7p6qEm0kbXrQ-21" value="" style="rounded=0;whiteSpace=wrap;html=1;sketch=1;hachureGap=4;jiggle=2;curveFitting=1;fontFamily=Architects Daughter;fontSource=https%3A%2F%2Ffonts.googleapis.com%2Fcss%3Ffamily%3DArchitects%2BDaughter;strokeColor=#999999;" vertex="1" parent="UnbnQZLA7p6qEm0kbXrQ-110">
          <mxGeometry x="141" y="80" width="220" height="20" as="geometry" />
        </mxCell>
        <mxCell id="UnbnQZLA7p6qEm0kbXrQ-23" value="First Name" style="text;html=1;align=left;verticalAlign=middle;whiteSpace=wrap;rounded=0;fontFamily=Architects Daughter;fontSource=https%3A%2F%2Ffonts.googleapis.com%2Fcss%3Ffamily%3DArchitects%2BDaughter;fontColor=#666666;fontSize=14;" vertex="1" parent="UnbnQZLA7p6qEm0kbXrQ-110">
          <mxGeometry x="21" y="75" width="90" height="30" as="geometry" />
        </mxCell>
        <mxCell id="UnbnQZLA7p6qEm0kbXrQ-26" value="" style="rounded=0;whiteSpace=wrap;html=1;sketch=1;hachureGap=4;jiggle=2;curveFitting=1;fontFamily=Architects Daughter;fontSource=https%3A%2F%2Ffonts.googleapis.com%2Fcss%3Ffamily%3DArchitects%2BDaughter;strokeColor=#999999;" vertex="1" parent="UnbnQZLA7p6qEm0kbXrQ-110">
          <mxGeometry x="141" y="125" width="220" height="20" as="geometry" />
        </mxCell>
        <mxCell id="UnbnQZLA7p6qEm0kbXrQ-27" value="Last Name" style="text;html=1;align=left;verticalAlign=middle;whiteSpace=wrap;rounded=0;fontFamily=Architects Daughter;fontSource=https%3A%2F%2Ffonts.googleapis.com%2Fcss%3Ffamily%3DArchitects%2BDaughter;fontColor=#666666;fontSize=14;" vertex="1" parent="UnbnQZLA7p6qEm0kbXrQ-110">
          <mxGeometry x="21" y="120" width="90" height="30" as="geometry" />
        </mxCell>
        <mxCell id="UnbnQZLA7p6qEm0kbXrQ-40" value="" style="group;fontSize=14;" vertex="1" connectable="0" parent="UnbnQZLA7p6qEm0kbXrQ-110">
          <mxGeometry x="211" y="260" width="150" height="90" as="geometry" />
        </mxCell>
        <mxCell id="UnbnQZLA7p6qEm0kbXrQ-28" value="" style="swimlane;strokeColor=#999999;swimlaneFillColor=#FFFFFF;fillColor=#ffffff;fontColor=#666666;fontStyle=0;childLayout=stackLayout;horizontal=1;startSize=0;horizontalStack=0;resizeParent=1;resizeParentMax=0;resizeLast=0;collapsible=0;marginBottom=0;whiteSpace=wrap;html=1;sketch=1;hachureGap=4;jiggle=2;curveFitting=1;fontFamily=Architects Daughter;fontSource=https%3A%2F%2Ffonts.googleapis.com%2Fcss%3Ffamily%3DArchitects%2BDaughter;fontSize=12;" vertex="1" parent="UnbnQZLA7p6qEm0kbXrQ-40">
          <mxGeometry y="30" width="150" height="60" as="geometry" />
        </mxCell>
        <mxCell id="UnbnQZLA7p6qEm0kbXrQ-29" value="&lt;font color=&quot;#666666&quot; style=&quot;font-size: 12px;&quot;&gt;Male&lt;/font&gt;" style="text;strokeColor=none;align=left;verticalAlign=middle;spacingLeft=27;spacingRight=10;overflow=hidden;points=[[0,0.5],[1,0.5]];portConstraint=eastwest;rotatable=0;whiteSpace=wrap;html=1;fillColor=none;fontColor=inherit;fontSize=14;fontFamily=Architects Daughter;fontSource=https%3A%2F%2Ffonts.googleapis.com%2Fcss%3Ffamily%3DArchitects%2BDaughter;" vertex="1" parent="UnbnQZLA7p6qEm0kbXrQ-28">
          <mxGeometry width="150" height="20" as="geometry" />
        </mxCell>
        <mxCell id="UnbnQZLA7p6qEm0kbXrQ-30" value="" style="shape=ellipse;resizable=0;fillColor=#EEEEEE;strokeColor=#999999;gradientColor=#cccccc;html=1;sketch=1;hachureGap=4;jiggle=2;curveFitting=1;fontFamily=Architects Daughter;fontSource=https%3A%2F%2Ffonts.googleapis.com%2Fcss%3Ffamily%3DArchitects%2BDaughter;" vertex="1" parent="UnbnQZLA7p6qEm0kbXrQ-29">
          <mxGeometry y="0.5" width="15" height="15" relative="1" as="geometry">
            <mxPoint x="8" y="-7.5" as="offset" />
          </mxGeometry>
        </mxCell>
        <mxCell id="UnbnQZLA7p6qEm0kbXrQ-31" value="&lt;font color=&quot;#666666&quot; style=&quot;font-size: 12px;&quot;&gt;Female&lt;/font&gt;" style="text;strokeColor=none;align=left;verticalAlign=middle;spacingLeft=27;spacingRight=10;overflow=hidden;points=[[0,0.5],[1,0.5]];portConstraint=eastwest;rotatable=0;whiteSpace=wrap;html=1;rSize=5;fillColor=none;fontColor=inherit;fontSize=14;fontFamily=Architects Daughter;fontSource=https%3A%2F%2Ffonts.googleapis.com%2Fcss%3Ffamily%3DArchitects%2BDaughter;" vertex="1" parent="UnbnQZLA7p6qEm0kbXrQ-28">
          <mxGeometry y="20" width="150" height="20" as="geometry" />
        </mxCell>
        <mxCell id="UnbnQZLA7p6qEm0kbXrQ-32" value="" style="shape=ellipse;resizable=0;fillColor=#EEEEEE;strokeColor=#999999;gradientColor=#cccccc;html=1;sketch=1;hachureGap=4;jiggle=2;curveFitting=1;fontFamily=Architects Daughter;fontSource=https%3A%2F%2Ffonts.googleapis.com%2Fcss%3Ffamily%3DArchitects%2BDaughter;" vertex="1" parent="UnbnQZLA7p6qEm0kbXrQ-31">
          <mxGeometry y="0.5" width="15" height="15" relative="1" as="geometry">
            <mxPoint x="8" y="-7.5" as="offset" />
          </mxGeometry>
        </mxCell>
        <mxCell id="UnbnQZLA7p6qEm0kbXrQ-33" value="&lt;font style=&quot;font-size: 12px;&quot;&gt;Other&lt;/font&gt;" style="text;strokeColor=none;align=left;verticalAlign=middle;spacingLeft=27;spacingRight=10;overflow=hidden;points=[[0,0.5],[1,0.5]];portConstraint=eastwest;rotatable=0;whiteSpace=wrap;html=1;rSize=5;fillColor=none;fontColor=#008CFF;fontSize=14;fontFamily=Architects Daughter;fontSource=https%3A%2F%2Ffonts.googleapis.com%2Fcss%3Ffamily%3DArchitects%2BDaughter;" vertex="1" parent="UnbnQZLA7p6qEm0kbXrQ-28">
          <mxGeometry y="40" width="150" height="20" as="geometry" />
        </mxCell>
        <mxCell id="UnbnQZLA7p6qEm0kbXrQ-34" value="" style="shape=ellipse;resizable=0;fillColor=#AAAAAA;gradientColor=#666666;strokeColor=#444444;html=1;sketch=1;hachureGap=4;jiggle=2;curveFitting=1;fontFamily=Architects Daughter;fontSource=https%3A%2F%2Ffonts.googleapis.com%2Fcss%3Ffamily%3DArchitects%2BDaughter;" vertex="1" parent="UnbnQZLA7p6qEm0kbXrQ-33">
          <mxGeometry y="0.5" width="15" height="15" relative="1" as="geometry">
            <mxPoint x="8" y="-7.5" as="offset" />
          </mxGeometry>
        </mxCell>
        <mxCell id="UnbnQZLA7p6qEm0kbXrQ-35" value="" style="shape=ellipse;resizable=0;fillColor=#444444;strokeColor=none;html=1;sketch=1;hachureGap=4;jiggle=2;curveFitting=1;fontFamily=Architects Daughter;fontSource=https%3A%2F%2Ffonts.googleapis.com%2Fcss%3Ffamily%3DArchitects%2BDaughter;" vertex="1" parent="UnbnQZLA7p6qEm0kbXrQ-34">
          <mxGeometry x="0.2" y="0.2" width="9" height="9" relative="1" as="geometry" />
        </mxCell>
        <mxCell id="UnbnQZLA7p6qEm0kbXrQ-39" value="Gender" style="text;html=1;align=center;verticalAlign=bottom;whiteSpace=wrap;rounded=0;fontFamily=Architects Daughter;fontSource=https%3A%2F%2Ffonts.googleapis.com%2Fcss%3Ffamily%3DArchitects%2BDaughter;fontColor=#666666;fontSize=14;" vertex="1" parent="UnbnQZLA7p6qEm0kbXrQ-40">
          <mxGeometry width="150" height="25" as="geometry" />
        </mxCell>
        <mxCell id="UnbnQZLA7p6qEm0kbXrQ-41" value="" style="strokeWidth=1;shadow=0;dashed=0;align=center;html=1;shape=mxgraph.mockup.forms.comboBox;strokeColor=#999999;fillColor=#ddeeff;align=left;fillColor2=#aaddff;mainText=;fontColor=#666666;fontSize=17;spacingLeft=3;sketch=1;hachureGap=4;jiggle=2;curveFitting=1;fontFamily=Architects Daughter;fontSource=https%3A%2F%2Ffonts.googleapis.com%2Fcss%3Ffamily%3DArchitects%2BDaughter;" vertex="1" parent="UnbnQZLA7p6qEm0kbXrQ-110">
          <mxGeometry x="141" y="210" width="220" height="25" as="geometry" />
        </mxCell>
        <mxCell id="UnbnQZLA7p6qEm0kbXrQ-42" value="Day" style="text;html=1;align=center;verticalAlign=middle;whiteSpace=wrap;rounded=0;fontFamily=Architects Daughter;fontSource=https%3A%2F%2Ffonts.googleapis.com%2Fcss%3Ffamily%3DArchitects%2BDaughter;fontColor=#666666;fontSize=12;" vertex="1" parent="UnbnQZLA7p6qEm0kbXrQ-110">
          <mxGeometry x="21" y="290" width="50" height="20" as="geometry" />
        </mxCell>
        <mxCell id="UnbnQZLA7p6qEm0kbXrQ-46" value="" style="rounded=0;whiteSpace=wrap;html=1;sketch=1;hachureGap=4;jiggle=2;curveFitting=1;fontFamily=Architects Daughter;fontSource=https%3A%2F%2Ffonts.googleapis.com%2Fcss%3Ffamily%3DArchitects%2BDaughter;strokeColor=#999999;" vertex="1" parent="UnbnQZLA7p6qEm0kbXrQ-110">
          <mxGeometry x="141" y="170" width="220" height="20" as="geometry" />
        </mxCell>
        <mxCell id="UnbnQZLA7p6qEm0kbXrQ-47" value="Email" style="text;html=1;align=left;verticalAlign=middle;whiteSpace=wrap;rounded=0;fontFamily=Architects Daughter;fontSource=https%3A%2F%2Ffonts.googleapis.com%2Fcss%3Ffamily%3DArchitects%2BDaughter;fontColor=#666666;fontSize=14;" vertex="1" parent="UnbnQZLA7p6qEm0kbXrQ-110">
          <mxGeometry x="21" y="165" width="90" height="30" as="geometry" />
        </mxCell>
        <mxCell id="UnbnQZLA7p6qEm0kbXrQ-101" value="&lt;table style=&quot;width: 100%; height: 100%; font-size: 12px;&quot; cellspacing=&quot;0&quot; cellpadding=&quot;0&quot;&gt;&lt;tbody style=&quot;font-size: 12px;&quot;&gt;&lt;tr style=&quot;font-size: 12px;&quot;&gt;&lt;td style=&quot;width: 85%; font-size: 12px;&quot;&gt;13&lt;/td&gt;&lt;td style=&quot;width: 15%; font-size: 12px;&quot;&gt;&lt;/td&gt;&lt;/tr&gt;&lt;/tbody&gt;&lt;/table&gt;" style="strokeWidth=1;shadow=0;dashed=0;align=center;html=1;shape=mxgraph.mockup.forms.spinner;strokeColor=#999999;spinLayout=right;spinStyle=normal;adjStyle=triangle;fillColor=#aaddff;fontSize=12;fontColor=#666666;mainText=;html=1;overflow=fill;sketch=1;hachureGap=4;jiggle=2;curveFitting=1;fontFamily=Architects Daughter;fontSource=https%3A%2F%2Ffonts.googleapis.com%2Fcss%3Ffamily%3DArchitects%2BDaughter;" vertex="1" parent="UnbnQZLA7p6qEm0kbXrQ-110">
          <mxGeometry x="21" y="310" width="50" height="20" as="geometry" />
        </mxCell>
        <mxCell id="UnbnQZLA7p6qEm0kbXrQ-102" value="&lt;table style=&quot;width: 100%; height: 100%; font-size: 12px;&quot; cellspacing=&quot;0&quot; cellpadding=&quot;0&quot;&gt;&lt;tbody style=&quot;font-size: 12px;&quot;&gt;&lt;tr style=&quot;font-size: 12px;&quot;&gt;&lt;td style=&quot;width: 85%; font-size: 12px;&quot;&gt;04&lt;/td&gt;&lt;td style=&quot;width: 15%; font-size: 12px;&quot;&gt;&lt;/td&gt;&lt;/tr&gt;&lt;/tbody&gt;&lt;/table&gt;" style="strokeWidth=1;shadow=0;dashed=0;align=center;html=1;shape=mxgraph.mockup.forms.spinner;strokeColor=#999999;spinLayout=right;spinStyle=normal;adjStyle=triangle;fillColor=#aaddff;fontSize=12;fontColor=#666666;mainText=;html=1;overflow=fill;sketch=1;hachureGap=4;jiggle=2;curveFitting=1;fontFamily=Architects Daughter;fontSource=https%3A%2F%2Ffonts.googleapis.com%2Fcss%3Ffamily%3DArchitects%2BDaughter;" vertex="1" parent="UnbnQZLA7p6qEm0kbXrQ-110">
          <mxGeometry x="81" y="310" width="50" height="20" as="geometry" />
        </mxCell>
        <mxCell id="UnbnQZLA7p6qEm0kbXrQ-103" value="&lt;table style=&quot;width: 100%; height: 100%; font-size: 12px;&quot; cellspacing=&quot;0&quot; cellpadding=&quot;0&quot;&gt;&lt;tbody style=&quot;font-size: 12px;&quot;&gt;&lt;tr style=&quot;font-size: 12px;&quot;&gt;&lt;td style=&quot;width: 85%; font-size: 12px;&quot;&gt;1973&lt;/td&gt;&lt;td style=&quot;width: 15%; font-size: 12px;&quot;&gt;&lt;/td&gt;&lt;/tr&gt;&lt;/tbody&gt;&lt;/table&gt;" style="strokeWidth=1;shadow=0;dashed=0;align=center;html=1;shape=mxgraph.mockup.forms.spinner;strokeColor=#999999;spinLayout=right;spinStyle=normal;adjStyle=triangle;fillColor=#aaddff;fontSize=12;fontColor=#666666;mainText=;html=1;overflow=fill;sketch=1;hachureGap=4;jiggle=2;curveFitting=1;fontFamily=Architects Daughter;fontSource=https%3A%2F%2Ffonts.googleapis.com%2Fcss%3Ffamily%3DArchitects%2BDaughter;" vertex="1" parent="UnbnQZLA7p6qEm0kbXrQ-110">
          <mxGeometry x="141" y="310" width="60" height="20" as="geometry" />
        </mxCell>
        <mxCell id="UnbnQZLA7p6qEm0kbXrQ-104" value="Birthday" style="text;html=1;align=center;verticalAlign=middle;whiteSpace=wrap;rounded=0;fontFamily=Architects Daughter;fontSource=https%3A%2F%2Ffonts.googleapis.com%2Fcss%3Ffamily%3DArchitects%2BDaughter;fontColor=#666666;fontSize=14;" vertex="1" parent="UnbnQZLA7p6qEm0kbXrQ-110">
          <mxGeometry x="11" y="260" width="180" height="30" as="geometry" />
        </mxCell>
        <mxCell id="UnbnQZLA7p6qEm0kbXrQ-105" value="Month" style="text;html=1;align=center;verticalAlign=middle;whiteSpace=wrap;rounded=0;fontFamily=Architects Daughter;fontSource=https%3A%2F%2Ffonts.googleapis.com%2Fcss%3Ffamily%3DArchitects%2BDaughter;fontColor=#666666;fontSize=12;" vertex="1" parent="UnbnQZLA7p6qEm0kbXrQ-110">
          <mxGeometry x="81" y="290" width="50" height="20" as="geometry" />
        </mxCell>
        <mxCell id="UnbnQZLA7p6qEm0kbXrQ-107" value="Year" style="text;html=1;align=center;verticalAlign=middle;whiteSpace=wrap;rounded=0;fontFamily=Architects Daughter;fontSource=https%3A%2F%2Ffonts.googleapis.com%2Fcss%3Ffamily%3DArchitects%2BDaughter;fontColor=#666666;fontSize=12;" vertex="1" parent="UnbnQZLA7p6qEm0kbXrQ-110">
          <mxGeometry x="141" y="290" width="60" height="20" as="geometry" />
        </mxCell>
        <mxCell id="UnbnQZLA7p6qEm0kbXrQ-108" value="Address" style="text;html=1;align=left;verticalAlign=middle;whiteSpace=wrap;rounded=0;fontFamily=Architects Daughter;fontSource=https%3A%2F%2Ffonts.googleapis.com%2Fcss%3Ffamily%3DArchitects%2BDaughter;fontColor=#666666;fontSize=14;" vertex="1" parent="UnbnQZLA7p6qEm0kbXrQ-110">
          <mxGeometry x="21" y="210" width="90" height="30" as="geometry" />
        </mxCell>
      </root>
    </mxGraphModel>
  </diagram>
</mxfile>
